<svg width="578" height="170" viewBox="0 0 578 170" fill="none" xmlns="http://www.w3.org/2000/svg">
<path d="M535.154 160.2C526.154 160.2 523.754 150 523.754 143C523.754 116 548.554 89.7998 567.354 89.7998C574.954 89.7998 577.554 94.5998 577.554 102.2C577.354 110.8 573.754 121.8 567.154 132.8C558.754 146.6 545.554 160.2 535.154 160.2ZM535.154 158.6C544.754 158.6 556.354 144.6 564.354 130.6C570.754 120 575.554 108.8 575.554 100.6C575.554 94.9998 573.354 91.1998 568.354 91.1998C560.354 91.1998 549.354 103 540.954 116.4C533.754 128 528.354 140.8 528.154 149.4C528.154 154.6 529.554 158.6 535.154 158.6Z" fill="#F1E9DA"/>
<path d="M498.732 160.2C490.932 160.2 488.332 153.2 488.132 146.4C487.932 136.6 491.132 127 498.732 114.8L504.732 105.4C509.532 97.4 511.532 92.2 511.332 86.6C511.132 79.8 507.732 76.2 502.332 74.6C498.532 74.4 494.732 74 491.732 73.4L492.132 72.2C497.132 72.8 500.132 73 503.532 73C531.932 73 549.532 50.4 549.532 30.6C549.532 28 549.132 25.4 548.532 23.2H514.532L434.732 151.8L424.332 157.2H463.932L463.132 159H385.732L386.532 157.2H419.932L446.732 114.2H441.332C412.732 114.2 398.532 96.8 398.532 75.8C398.532 41 439.332 0 501.932 0C529.932 0 547.132 8.6 553.932 21.6H575.332L574.332 23.2H554.532C556.132 26.8 556.932 30.8 556.932 35C556.932 57.2 535.332 74 505.732 74.6C512.132 77.6 515.732 84 515.932 93C516.332 100.6 514.132 108.6 507.732 119L501.132 129.4C494.332 140.2 491.732 146.4 491.732 151.8C491.732 155.8 494.132 158.6 498.732 158.6C508.732 158.6 517.732 146.8 530.732 127.8L534.132 123C534.732 122.6 535.132 122.6 535.732 123L532.532 127.8C521.532 144.2 510.332 160.2 498.732 160.2ZM400.332 75.8C400.332 95.8 413.532 112.6 441.332 112.6H447.732L499.332 29.8L513.932 21.6H548.132C543.132 8.4 526.932 1.59999 501.732 1.59999C439.132 1.59999 400.332 42 400.332 75.8Z" fill="#F1E9DA"/>
<path d="M359.883 124L361.083 122.4H395.283L394.083 124H359.883Z" fill="#F1E9DA"/>
<path d="M318.584 160.2C309.584 160.2 307.184 150 307.184 143C307.184 116 331.984 89.7998 350.784 89.7998C358.384 89.7998 360.984 94.5998 360.984 102.2C360.784 110.8 357.184 121.8 350.584 132.8C342.184 146.6 328.984 160.2 318.584 160.2ZM318.584 158.6C328.184 158.6 339.784 144.6 347.784 130.6C354.184 120 358.984 108.8 358.984 100.6C358.984 94.9998 356.784 91.1998 351.784 91.1998C343.784 91.1998 332.784 103 324.384 116.4C317.184 128 311.784 140.8 311.584 149.4C311.584 154.6 312.984 158.6 318.584 158.6Z" fill="#F1E9DA"/>
<path d="M284.311 160.2C277.711 160.2 275.711 154.2 275.711 148.4C275.711 137.2 280.511 127.6 289.311 113.6L301.711 93.9999L301.311 92.7999H292.511C292.511 92.1999 292.711 91.7999 293.311 91.3999H311.911L312.311 92.7999L295.711 119C282.311 140 278.511 146.6 278.511 152.8C278.511 157 280.911 158.8 284.311 158.8C292.711 158.8 301.111 147.8 310.911 133L317.511 123C318.311 122.6 318.711 122.6 319.111 123L312.111 133.6C302.311 148.4 293.711 160.2 284.311 160.2ZM321.111 55.7999L329.911 42.3999H339.311L330.511 55.7999H321.111Z" fill="#F1E9DA"/>
<path d="M255.594 160.2C248.994 160.2 246.194 155 246.194 146.6C246.194 142.2 246.994 137.8 248.594 133.4H247.794C234.394 152 226.194 160.6 218.594 160.6C211.394 160.6 208.594 152.6 208.594 145C208.594 134.6 213.194 124 218.594 115.8C229.394 99.6001 245.594 90.0001 263.594 90.0001C266.394 90.0001 269.394 90.2001 272.994 90.8001L315.594 23.2001H281.594L282.594 21.6001H311.594C319.394 21.6001 325.394 19.4001 329.994 12.6001H331.994L264.794 120.2C254.994 135.8 249.394 144.6 249.394 151.8C249.394 156.6 251.394 158.8 255.394 158.8C264.194 158.8 272.994 148.4 283.594 132.8L290.194 123C290.994 122.6 291.394 122.6 291.794 123L284.794 133.4C274.394 148.8 265.394 160.2 255.594 160.2ZM212.794 151.8C212.794 156.6 215.194 159.2 218.794 159.2C225.594 159.2 234.794 149.6 248.594 129.6L261.994 108.4L271.594 93.2001C268.994 92.0001 265.994 91.2001 262.194 91.2001C248.794 91.2001 237.994 101.4 226.994 118C218.994 129.8 212.794 143 212.794 151.8Z" fill="#F1E9DA"/>
<path d="M150.347 160.2C144.947 160.2 141.547 156 141.547 147.4C141.547 138.6 146.147 129.4 157.347 112.4L169.547 93.9999L169.147 92.7999H160.747C160.747 92.1999 160.947 91.5999 161.747 91.3999H179.547L179.947 92.9999L163.747 117.4C150.147 138.2 144.747 145.4 144.747 152.4C144.747 156.6 146.747 158.8 150.347 158.8C160.347 158.8 174.347 142.4 187.147 122L204.747 93.9999L204.347 92.7999H196.147C196.147 92.1999 196.347 91.7999 196.947 91.3999H215.147L215.547 92.9999L194.547 126C183.947 142.4 180.947 147.8 180.947 152.8C180.947 156.4 182.547 158.8 186.547 158.8C195.147 158.8 203.347 148 214.147 132.2L220.547 123C221.347 122.6 221.947 122.6 222.347 123L215.747 132.4C205.347 147.6 196.147 160.2 186.547 160.2C180.347 160.2 178.147 155.2 178.147 148.6C178.147 144 179.347 139.4 180.347 135.6H179.747C169.747 149.6 158.747 160.2 150.347 160.2Z" fill="#F1E9DA"/>
<path d="M120.205 160.2C114.405 160.2 110.205 156.4 110.205 147.2C110.205 135.2 114.805 126.8 124.405 112L148.005 75.0002L146.805 72.8002H135.205L136.205 71.2002H150.405L161.205 54.4002C166.205 54.4002 169.805 52.6002 172.205 49.2002H174.005L160.005 71.2002H182.805L181.605 72.8002H159.005L128.005 121.6C118.205 137.2 113.605 144.6 113.605 151.6C113.605 156.8 116.205 158.8 120.605 158.8C130.005 158.8 141.205 146.8 151.605 131.4L157.205 123C158.005 122.6 158.405 122.6 158.805 123L153.005 131.8C142.805 147.2 130.805 160.2 120.205 160.2Z" fill="#F1E9DA"/>
<path d="M47 169.8C13 169.8 0 147 0 127C0 99.6001 24.6 70.6001 69.8 70.6001V73.6001C25.6 73.6001 2 101 2 127.2C2 147 15.4 167.6 46.2 167.6C91.6 167.6 97 121.4 100.8 92.6001C106.2 53.6001 111.8 21.6001 145.6 21.6001H157.4L153.6 27.0001C149.8 24.8001 146.2 23.6001 140.8 23.6001C119.8 23.6001 117.6 41.8001 112.2 87.0001C109.4 110.2 102.2 169.8 47 169.8Z" fill="#F1E9DA"/>
</svg>
